<mxfile host="app.diagrams.net" modified="2024-01-18T06:43:55.771Z" agent="Mozilla/5.0 (Windows NT 10.0; Win64; x64) AppleWebKit/537.36 (KHTML, like Gecko) Chrome/120.0.0.0 Safari/537.36" version="22.1.18" etag="TPtK9UqmmVCqKue4Efhz" type="github">
  <diagram name="第 1 页" id="JRcxmCP5mVJ3KemqzD7N">
    <mxGraphModel>
      <root>
        <mxCell id="0" />
        <mxCell id="1" parent="0" />
      </root>
    </mxGraphModel>
  </diagram>
</mxfile>
